
<group>
lokey=33
hikey=38
ampeg_release=0.300

<region>
sample=staccato\db2_staccato_rr5.wav
pitch_keycenter=37
pan=-40

<region>
sample=staccato\db2_staccato_rr3.wav
pitch_keycenter=37
pan=-20

<region>
sample=staccato\db2_staccato_rr1.wav
pitch_keycenter=37

<region>
sample=staccato\db2_staccato_rr2.wav
pitch_keycenter=37
pan=20

<region>
sample=staccato\db2_staccato_rr4.wav
pitch_keycenter=37
pan=40

//========================
<group>
lokey=39
hikey=40
ampeg_release=0.300

<region>
sample=staccato\e2_staccato_rr5.wav
pitch_keycenter=40
pan=-40

<region>
sample=staccato\e2_staccato_rr3.wav
pitch_keycenter=40
pan=-20

<region>
sample=staccato\e2_staccato_rr1.wav
pitch_keycenter=40

<region>
sample=staccato\e2_staccato_rr2.wav
pitch_keycenter=40
pan=20

<region>
sample=staccato\e2_staccato_rr4.wav
pitch_keycenter=40
pan=40

//========================
<group>
lokey=41
hikey=43
ampeg_release=0.300

<region>
sample=staccato\gb2_staccato_rr5.wav
pitch_keycenter=42
pan=-40

<region>
sample=staccato\gb2_staccato_rr3.wav
pitch_keycenter=42
pan=-20

<region>
sample=staccato\gb2_staccato_rr1.wav
pitch_keycenter=42

<region>
sample=staccato\gb2_staccato_rr2.wav
pitch_keycenter=42
pan=20

<region>
sample=staccato\gb2_staccato_rr4.wav
pitch_keycenter=42
pan=40

//========================
<group>
lokey=44
hikey=46
ampeg_release=0.300

<region>
sample=staccato\a2_staccato_rr5.wav
pitch_keycenter=45
pan=-40

<region>
sample=staccato\a2_staccato_rr3.wav
pitch_keycenter=45
pan=-20

<region>
sample=staccato\a2_staccato_rr1.wav
pitch_keycenter=45

<region>
sample=staccato\a2_staccato_rr2.wav
pitch_keycenter=45
pan=20

<region>
sample=staccato\a2_staccato_rr4.wav
pitch_keycenter=45
pan=40

//========================
<group>
lokey=47
hikey=49
ampeg_release=0.300

<region>
sample=staccato\c3_staccato_rr5.wav
pitch_keycenter=48
pan=-40

<region>
sample=staccato\c3_staccato_rr3.wav
pitch_keycenter=48
pan=-20

<region>
sample=staccato\c3_staccato_rr1.wav
pitch_keycenter=48

<region>
sample=staccato\c3_staccato_rr2.wav
pitch_keycenter=48
pan=20

<region>
sample=staccato\c3_staccato_rr4.wav
pitch_keycenter=47
pan=40

//========================
<group>
lokey=50
hikey=52
ampeg_release=0.300

<region>
sample=staccato\eb3_staccato_rr5.wav
pitch_keycenter=51
pan=-40

<region>
sample=staccato\eb3_staccato_rr3.wav
pitch_keycenter=51
pan=-20

<region>
sample=staccato\eb3_staccato_rr1.wav
pitch_keycenter=51

<region>
sample=staccato\eb3_staccato_rr2.wav
pitch_keycenter=51
pan=20

<region>
sample=staccato\eb3_staccato_rr4.wav
pitch_keycenter=51
pan=40

//========================
<group>
lokey=53
hikey=55
ampeg_release=0.300

<region>
sample=staccato\gb3_staccato_rr5.wav
pitch_keycenter=54
pan=-40

<region>
sample=staccato\gb3_staccato_rr3.wav
pitch_keycenter=54
pan=-20

<region>
sample=staccato\gb3_staccato_rr1.wav
pitch_keycenter=54

<region>
sample=staccato\gb3_staccato_rr2.wav
pitch_keycenter=54
pan=20

<region>
sample=staccato\gb3_staccato_rr4.wav
pitch_keycenter=54
pan=40

//========================
<group>
lokey=56
hikey=58
ampeg_release=0.300

<region>
sample=staccato\a3_staccato_rr5.wav
pitch_keycenter=57
pan=-40

<region>
sample=staccato\a3_staccato_rr3.wav
pitch_keycenter=57
pan=-20

<region>
sample=staccato\a3_staccato_rr1.wav
pitch_keycenter=57

<region>
sample=staccato\a3_staccato_rr2.wav
pitch_keycenter=57
pan=20

<region>
sample=staccato\a3_staccato_rr4.wav
pitch_keycenter=57
pan=40

//========================
<group>
lokey=59
hikey=61
ampeg_release=0.300

<region>
sample=staccato\c4_staccato_rr5.wav
pan=-40

<region>
sample=staccato\c4_staccato_rr3.wav
pan=-20

<region>
sample=staccato\c4_staccato_rr1.wav

<region>
sample=staccato\c4_staccato_rr2.wav
pan=20

<region>
sample=staccato\c4_staccato_rr4.wav
pan=40

//========================
<group>
lokey=62
hikey=64
ampeg_release=0.300

<region>
sample=staccato\eb4_staccato_rr5.wav
pitch_keycenter=63
pan=-40

<region>
sample=staccato\eb4_staccato_rr3.wav
pitch_keycenter=63
pan=-20

<region>
sample=staccato\eb4_staccato_rr1.wav
pitch_keycenter=63

<region>
sample=staccato\eb4_staccato_rr2.wav
pitch_keycenter=63
pan=20

<region>
sample=staccato\eb4_staccato_rr4.wav
pitch_keycenter=63
pan=40

//========================
<group>
lokey=65
hikey=67
ampeg_release=0.300

<region>
sample=staccato\gb4_staccato_rr5.wav
pitch_keycenter=66
pan=-40

<region>
sample=staccato\gb4_staccato_rr3.wav
pitch_keycenter=66
pan=-20

<region>
sample=staccato\gb4_staccato_rr1.wav
pitch_keycenter=66

<region>
sample=staccato\gb4_staccato_rr2.wav
pitch_keycenter=66
pan=20

<region>
sample=staccato\gb4_staccato_rr4.wav
pitch_keycenter=66
pan=40

//========================
<group>
lokey=68
hikey=70
ampeg_release=0.300

<region>
sample=staccato\a4_staccato_rr5.wav
pitch_keycenter=69
pan=-40

<region>
sample=staccato\a4_staccato_rr3.wav
pitch_keycenter=69
pan=-20

<region>
sample=staccato\a4_staccato_rr1.wav
pitch_keycenter=69

<region>
sample=staccato\a4_staccato_rr2.wav
pitch_keycenter=69
pan=20

<region>
sample=staccato\a4_staccato_rr4.wav
pitch_keycenter=69
pan=40

//========================
<group>
lokey=71
hikey=73
ampeg_release=0.300

<region>
sample=staccato\c5_staccato_rr5.wav
pitch_keycenter=72
pan=-40

<region>
sample=staccato\c5_staccato_rr3.wav
pitch_keycenter=72
pan=-20

<region>
sample=staccato\c5_staccato_rr1.wav
pitch_keycenter=72

<region>
sample=staccato\c5_staccato_rr2.wav
pitch_keycenter=72
pan=20

<region>
sample=staccato\c5_staccato_rr4.wav
pitch_keycenter=72
pan=40

//========================
<group>
lokey=74
hikey=79
ampeg_release=0.300

<region>
sample=staccato\eb5_staccato_rr5.wav
pitch_keycenter=75
pan=-40

<region>
sample=staccato\eb5_staccato_rr3.wav
pitch_keycenter=75
pan=-20

<region>
sample=staccato\eb5_staccato_rr1.wav
pitch_keycenter=75

<region>
sample=staccato\eb5_staccato_rr2.wav
pitch_keycenter=75
pan=20

<region>
sample=staccato\eb5_staccato_rr4.wav
pitch_keycenter=75
pan=40

//========================
<group>
lokey=33
hikey=38
hivel=60
ampeg_release=0.300
amp_velcurve_60=1

<region>
sample=sustain\db2_pp_rr1.wav
pitch_keycenter=37
pan=-50

<region>
sample=sustain\db2_pp_rr2.wav
pitch_keycenter=37
pan=50

<region>
sample=sustain\db2_pp_rr3.wav
pitch_keycenter=37
pan=90

<region>
sample=sustain\db2_pp_rr4.wav
pitch_keycenter=37
pan=-90

//========================
<group>
lokey=33
hikey=38
lovel=61
hivel=95
ampeg_release=0.300
amp_velcurve_95=1

<region>
sample=sustain\db2_p_rr1.wav
pitch_keycenter=37
pan=-50

<region>
sample=sustain\db2_p_rr2.wav
pitch_keycenter=37
pan=50

<region>
sample=sustain\db2_p_rr3.wav
pitch_keycenter=37
pan=90

<region>
sample=sustain\db2_p_rr4.wav
pitch_keycenter=37
pan=-90

//========================
<group>
lokey=33
hikey=38
lovel=96
hivel=120
ampeg_release=0.300
amp_velcurve_120=1

<region>
sample=sustain\db2_f_rr1.wav
pitch_keycenter=37
pan=-50

<region>
sample=sustain\db2_f_rr2.wav
pitch_keycenter=37
pan=50

<region>
sample=sustain\db2_f_rr3.wav
pitch_keycenter=37
pan=90

<region>
sample=sustain\db2_f_rr4.wav
pitch_keycenter=37
pan=-90

//========================
<group>
lokey=33
hikey=38
lovel=121
ampeg_release=0.300

<region>
sample=sustain\db2_ff_rr1.wav
pitch_keycenter=37
pan=-50

<region>
sample=sustain\db2_ff_rr2.wav
pitch_keycenter=37
pan=50

<region>
sample=sustain\db2_ff_rr3.wav
pitch_keycenter=37
pan=90

<region>
sample=sustain\db2_ff_rr4.wav
pitch_keycenter=37
pan=-90

//========================
<group>
lokey=39
hikey=40
hivel=60
ampeg_release=0.300
amp_velcurve_60=1

<region>
sample=sustain\e2_pp_rr1.wav
pitch_keycenter=40
pan=-50

<region>
sample=sustain\e2_pp_rr2.wav
pitch_keycenter=40
pan=50

<region>
sample=sustain\e2_pp_rr3.wav
pitch_keycenter=40
pan=90

<region>
sample=sustain\e2_pp_rr4.wav
pitch_keycenter=40
pan=-90

//========================
<group>
lokey=39
hikey=40
lovel=61
hivel=95
ampeg_release=0.300
amp_velcurve_95=1

<region>
sample=sustain\e2_p_rr1.wav
pitch_keycenter=40
pan=-50

<region>
sample=sustain\e2_p_rr2.wav
pitch_keycenter=40
pan=50

<region>
sample=sustain\e2_p_rr3.wav
pitch_keycenter=40
pan=90

<region>
sample=sustain\e2_p_rr4.wav
pitch_keycenter=40
pan=-90

//========================
<group>
lokey=39
hikey=40
lovel=96
hivel=120
ampeg_release=0.300
amp_velcurve_120=1

<region>
sample=sustain\e2_f_rr1.wav
pitch_keycenter=40
pan=-50

<region>
sample=sustain\e2_f_rr2.wav
pitch_keycenter=40
pan=50

<region>
sample=sustain\e2_f_rr3.wav
pitch_keycenter=40
pan=90

<region>
sample=sustain\e2_f_rr4.wav
pitch_keycenter=40
pan=-90

//========================
<group>
lokey=39
hikey=40
lovel=121
ampeg_release=0.300

<region>
sample=sustain\e2_ff_rr1.wav
pitch_keycenter=40
pan=-50

<region>
sample=sustain\e2_ff_rr2.wav
pitch_keycenter=40
pan=50

<region>
sample=sustain\e2_ff_rr3.wav
pitch_keycenter=40
pan=90

<region>
sample=sustain\e2_ff_rr4.wav
pitch_keycenter=40
pan=-90

//========================
<group>
lokey=41
hikey=43
hivel=60
ampeg_release=0.300
amp_velcurve_60=1

<region>
sample=sustain\gb2_pp_rr1.wav
pitch_keycenter=42
pan=-50

<region>
sample=sustain\gb2_pp_rr2.wav
pitch_keycenter=42
pan=50

<region>
sample=sustain\gb2_pp_rr3.wav
pitch_keycenter=42
pan=90

<region>
sample=sustain\gb2_pp_rr4.wav
pitch_keycenter=42
pan=-90

//========================
<group>
lokey=41
hikey=43
lovel=61
hivel=95
ampeg_release=0.300
amp_velcurve_95=1

<region>
sample=sustain\gb2_p_rr1.wav
pitch_keycenter=42
pan=-50

<region>
sample=sustain\gb2_p_rr2.wav
pitch_keycenter=42
pan=50

<region>
sample=sustain\gb2_p_rr3.wav
pitch_keycenter=42
pan=90

<region>
sample=sustain\gb2_p_rr4.wav
pitch_keycenter=42
pan=-90

//========================
<group>
lokey=41
hikey=43
lovel=96
hivel=120
ampeg_release=0.300
amp_velcurve_120=1

<region>
sample=sustain\gb2_f_rr1.wav
pitch_keycenter=42
pan=-50

<region>
sample=sustain\gb2_f_rr2.wav
pitch_keycenter=42
pan=50

<region>
sample=sustain\gb2_f_rr3.wav
pitch_keycenter=42
pan=90

<region>
sample=sustain\gb2_f_rr4.wav
pitch_keycenter=42
pan=-90

//========================
<group>
lokey=41
hikey=43
lovel=121
ampeg_release=0.300

<region>
sample=sustain\gb2_ff_rr1.wav
pitch_keycenter=42
pan=-50

<region>
sample=sustain\gb2_ff_rr2.wav
pitch_keycenter=42
pan=50

<region>
sample=sustain\gb2_ff_rr3.wav
pitch_keycenter=42
pan=90

<region>
sample=sustain\gb2_ff_rr4.wav
pitch_keycenter=42
pan=-90

//========================
<group>
lokey=44
hikey=46
hivel=60
ampeg_release=0.300
amp_velcurve_60=1

<region>
sample=sustain\a2_pp_rr1.wav
pitch_keycenter=45
pan=-50

<region>
sample=sustain\a2_pp_rr2.wav
pitch_keycenter=45
pan=50

<region>
sample=sustain\a2_pp_rr3.wav
pitch_keycenter=45
pan=90

<region>
sample=sustain\a2_pp_rr4.wav
pitch_keycenter=45
pan=-90

//========================
<group>
lokey=44
hikey=46
lovel=61
hivel=95
ampeg_release=0.300
amp_velcurve_95=1

<region>
sample=sustain\a2_p_rr1.wav
pitch_keycenter=45
pan=-50

<region>
sample=sustain\a2_p_rr2.wav
pitch_keycenter=45
pan=50

<region>
sample=sustain\a2_p_rr3.wav
pitch_keycenter=45
pan=90

<region>
sample=sustain\a2_p_rr4.wav
pitch_keycenter=45
pan=-90

//========================
<group>
lokey=44
hikey=46
lovel=96
hivel=120
ampeg_release=0.300
amp_velcurve_120=1

<region>
sample=sustain\a2_f_rr1.wav
pitch_keycenter=45
pan=-50

<region>
sample=sustain\a2_f_rr2.wav
pitch_keycenter=45
pan=50

<region>
sample=sustain\a2_f_rr3.wav
pitch_keycenter=45
pan=90

<region>
sample=sustain\a2_f_rr4.wav
pitch_keycenter=45
pan=-90

//========================
<group>
lokey=44
hikey=46
lovel=121
ampeg_release=0.300

<region>
sample=sustain\a2_ff_rr1.wav
pitch_keycenter=45
pan=-50

<region>
sample=sustain\a2_ff_rr2.wav
pitch_keycenter=45
pan=50

<region>
sample=sustain\a2_ff_rr3.wav
pitch_keycenter=45
pan=90

<region>
sample=sustain\a2_ff_rr4.wav
pitch_keycenter=45
pan=-90

//========================
<group>
lokey=47
hikey=49
hivel=60
ampeg_release=0.300
amp_velcurve_60=1

<region>
sample=sustain\c3_pp_rr1.wav
pitch_keycenter=48
pan=-50

<region>
sample=sustain\c3_pp_rr2.wav
pitch_keycenter=48
pan=50

<region>
sample=sustain\c3_pp_rr3.wav
pitch_keycenter=48
pan=90

<region>
sample=sustain\c3_pp_rr4.wav
pitch_keycenter=48
pan=-90

//========================
<group>
lokey=47
hikey=49
lovel=61
hivel=95
ampeg_release=0.300
amp_velcurve_95=1

<region>
sample=sustain\c3_p_rr1.wav
pitch_keycenter=48
pan=-50

<region>
sample=sustain\c3_p_rr2.wav
pitch_keycenter=48
pan=50

<region>
sample=sustain\c3_p_rr3.wav
pitch_keycenter=48
pan=90

<region>
sample=sustain\c3_p_rr4.wav
pitch_keycenter=48
pan=-90

//========================
<group>
lokey=47
hikey=49
lovel=96
hivel=120
ampeg_release=0.300
amp_velcurve_120=1

<region>
sample=sustain\c3_f_rr1.wav
pitch_keycenter=48
pan=-50

<region>
sample=sustain\c3_f_rr2.wav
pitch_keycenter=48
pan=50

<region>
sample=sustain\c3_f_rr3.wav
pitch_keycenter=48
pan=90

<region>
sample=sustain\c3_f_rr4.wav
pitch_keycenter=48
pan=-90

//========================
<group>
lokey=47
hikey=49
lovel=121
ampeg_release=0.300

<region>
sample=sustain\c3_ff_rr1.wav
pitch_keycenter=48
pan=-50

<region>
sample=sustain\c3_ff_rr2.wav
pitch_keycenter=48
pan=50

<region>
sample=sustain\c3_ff_rr3.wav
pitch_keycenter=48
pan=90

<region>
sample=sustain\c3_ff_rr4.wav
pitch_keycenter=48
pan=-90

//========================
<group>
lokey=50
hikey=52
hivel=60
ampeg_release=0.300
amp_velcurve_60=1

<region>
sample=sustain\eb3_pp_rr1.wav
pitch_keycenter=51
pan=-50

<region>
sample=sustain\eb3_pp_rr2.wav
pitch_keycenter=51
pan=50

<region>
sample=sustain\eb3_pp_rr3.wav
pitch_keycenter=51
pan=90

<region>
sample=sustain\eb3_pp_rr4.wav
pitch_keycenter=51
pan=-90

//========================
<group>
lokey=50
hikey=52
lovel=61
hivel=95
ampeg_release=0.300
amp_velcurve_95=1

<region>
sample=sustain\eb3_p_rr1.wav
pitch_keycenter=51
pan=-50

<region>
sample=sustain\eb3_p_rr2.wav
pitch_keycenter=51
pan=50

<region>
sample=sustain\eb3_p_rr3.wav
pitch_keycenter=51
pan=90

<region>
sample=sustain\eb3_p_rr4.wav
pitch_keycenter=51
pan=-90

//========================
<group>
lokey=50
hikey=52
lovel=96
hivel=120
ampeg_release=0.300
amp_velcurve_120=1

<region>
sample=sustain\eb3_f_rr1.wav
pitch_keycenter=51
pan=-50

<region>
sample=sustain\eb3_f_rr2.wav
pitch_keycenter=51
pan=50

<region>
sample=sustain\eb3_f_rr3.wav
pitch_keycenter=51
pan=90

<region>
sample=sustain\eb3_f_rr4.wav
pitch_keycenter=51
pan=-90

//========================
<group>
lokey=50
hikey=52
lovel=121
ampeg_release=0.300

<region>
sample=sustain\eb3_ff_rr1.wav
pitch_keycenter=51
pan=-50

<region>
sample=sustain\eb3_ff_rr2.wav
pitch_keycenter=51
pan=50

<region>
sample=sustain\eb3_ff_rr3.wav
pitch_keycenter=51
pan=90

<region>
sample=sustain\eb3_ff_rr4.wav
pitch_keycenter=51
pan=-90

//========================
<group>
lokey=53
hikey=55
hivel=60
ampeg_release=0.300
amp_velcurve_60=1

<region>
sample=sustain\gb3_pp_rr1.wav
pitch_keycenter=54
pan=-50

<region>
sample=sustain\gb3_pp_rr2.wav
pitch_keycenter=54
pan=50

<region>
sample=sustain\gb3_pp_rr3.wav
pitch_keycenter=54
pan=90

<region>
sample=sustain\gb3_pp_rr4.wav
pitch_keycenter=54
pan=-90

//========================
<group>
lokey=53
hikey=55
lovel=61
hivel=95
ampeg_release=0.300
amp_velcurve_95=1

<region>
sample=sustain\gb3_p_rr1.wav
pitch_keycenter=54
pan=-50

<region>
sample=sustain\gb3_p_rr2.wav
pitch_keycenter=54
pan=50

<region>
sample=sustain\gb3_p_rr3.wav
pitch_keycenter=54
pan=90

<region>
sample=sustain\gb3_p_rr4.wav
pitch_keycenter=54
pan=-90

//========================
<group>
lokey=53
hikey=55
lovel=96
hivel=120
ampeg_release=0.300
amp_velcurve_120=1

<region>
sample=sustain\gb3_f_rr1.wav
pitch_keycenter=54
pan=-50

<region>
sample=sustain\gb3_f_rr2.wav
pitch_keycenter=54
pan=50

<region>
sample=sustain\gb3_f_rr3.wav
pitch_keycenter=54
pan=90

<region>
sample=sustain\gb3_f_rr4.wav
pitch_keycenter=54
pan=-90

//========================
<group>
lokey=53
hikey=55
lovel=121
ampeg_release=0.300

<region>
sample=sustain\gb3_ff_rr1.wav
pitch_keycenter=54
pan=-50

<region>
sample=sustain\gb3_ff_rr2.wav
pitch_keycenter=54
pan=50

<region>
sample=sustain\gb3_ff_rr3.wav
pitch_keycenter=54
pan=90

<region>
sample=sustain\gb3_ff_rr4.wav
pitch_keycenter=54
pan=-90

//========================
<group>
lokey=56
hikey=58
hivel=60
ampeg_release=0.300
amp_velcurve_60=1

<region>
sample=sustain\a3_pp_rr1.wav
pitch_keycenter=57
pan=-50

<region>
sample=sustain\a3_pp_rr2.wav
pitch_keycenter=57
pan=50

<region>
sample=sustain\a3_pp_rr3.wav
pitch_keycenter=57
pan=90

<region>
sample=sustain\a3_pp_rr4.wav
pitch_keycenter=57
pan=-90

//========================
<group>
lokey=56
hikey=58
lovel=61
hivel=95
ampeg_release=0.300
amp_velcurve_95=1

<region>
sample=sustain\a3_p_rr1.wav
pitch_keycenter=57
pan=-50

<region>
sample=sustain\a3_p_rr2.wav
pitch_keycenter=57
pan=50

<region>
sample=sustain\a3_p_rr3.wav
pitch_keycenter=57
pan=90

<region>
sample=sustain\a3_p_rr4.wav
pitch_keycenter=57
pan=-90

//========================
<group>
lokey=56
hikey=58
lovel=96
hivel=120
ampeg_release=0.300
amp_velcurve_120=1

<region>
sample=sustain\a3_f_rr1.wav
pitch_keycenter=57
pan=-50

<region>
sample=sustain\a3_f_rr2.wav
pitch_keycenter=57
pan=50

<region>
sample=sustain\a3_f_rr3.wav
pitch_keycenter=57
pan=90

<region>
sample=sustain\a3_f_rr4.wav
pitch_keycenter=57
pan=-90

//========================
<group>
lokey=56
hikey=58
lovel=121
ampeg_release=0.300

<region>
sample=sustain\a3_ff_rr1.wav
pitch_keycenter=57
pan=-50

<region>
sample=sustain\a3_ff_rr2.wav
pitch_keycenter=57
pan=50

<region>
sample=sustain\a3_ff_rr3.wav
pitch_keycenter=57
pan=90

<region>
sample=sustain\a3_ff_rr4.wav
pitch_keycenter=57
pan=-90

//========================
<group>
lokey=59
hikey=61
hivel=60
ampeg_release=0.300
amp_velcurve_60=1

<region>
sample=sustain\c4_pp_rr1.wav
pan=-50

<region>
sample=sustain\c4_pp_rr2.wav
pan=50

<region>
sample=sustain\c4_pp_rr3.wav
pan=90

<region>
sample=sustain\c4_pp_rr4.wav
pan=-90

//========================
<group>
lokey=59
hikey=61
lovel=61
hivel=95
ampeg_release=0.300
amp_velcurve_95=1

<region>
sample=sustain\c4_p_rr1.wav
pan=-50

<region>
sample=sustain\c4_p_rr2.wav
pan=50

<region>
sample=sustain\c4_p_rr3.wav
pan=90

<region>
sample=sustain\c4_p_rr4.wav
pan=-90

//========================
<group>
lokey=59
hikey=61
lovel=96
hivel=120
ampeg_release=0.300
amp_velcurve_120=1

<region>
sample=sustain\c4_f_rr1.wav
pan=-50

<region>
sample=sustain\c4_f_rr2.wav
pan=50

<region>
sample=sustain\c4_f_rr3.wav
pan=90

<region>
sample=sustain\c4_f_rr4.wav
pan=-90

//========================
<group>
lokey=59
hikey=61
lovel=121
ampeg_release=0.300

<region>
sample=sustain\c4_ff_rr1.wav
pan=-50

<region>
sample=sustain\c4_ff_rr2.wav
pan=50

<region>
sample=sustain\c4_ff_rr3.wav
pan=90

<region>
sample=sustain\c4_ff_rr4.wav
pan=-90

//========================
<group>
lokey=62
hikey=64
hivel=60
ampeg_release=0.300
amp_velcurve_60=1

<region>
sample=sustain\eb4_pp_rr1.wav
pitch_keycenter=63
pan=-50

<region>
sample=sustain\eb4_pp_rr2.wav
pitch_keycenter=63
pan=50

<region>
sample=sustain\eb4_pp_rr3.wav
pitch_keycenter=63
pan=90

<region>
sample=sustain\eb4_pp_rr4.wav
pitch_keycenter=63
pan=-90

//========================
<group>
lokey=62
hikey=64
lovel=61
hivel=95
ampeg_release=0.300
amp_velcurve_95=1

<region>
sample=sustain\eb4_p_rr1.wav
pitch_keycenter=63
pan=-50

<region>
sample=sustain\eb4_p_rr2.wav
pitch_keycenter=63
pan=50

<region>
sample=sustain\eb4_p_rr3.wav
pitch_keycenter=63
pan=90

<region>
sample=sustain\eb4_p_rr4.wav
pitch_keycenter=63
pan=-90

//========================
<group>
lokey=62
hikey=64
lovel=96
hivel=120
ampeg_release=0.300
amp_velcurve_120=1

<region>
sample=sustain\eb4_f_rr1.wav
pitch_keycenter=63
pan=-50

<region>
sample=sustain\eb4_f_rr2.wav
pitch_keycenter=63
pan=50

<region>
sample=sustain\eb4_f_rr3.wav
pitch_keycenter=63
pan=90

<region>
sample=sustain\eb4_f_rr4.wav
pitch_keycenter=63
pan=-90

//========================
<group>
lokey=62
hikey=64
lovel=121
ampeg_release=0.300

<region>
sample=sustain\eb4_ff_rr1.wav
pitch_keycenter=63
pan=-50

<region>
sample=sustain\eb4_ff_rr2.wav
pitch_keycenter=63
pan=50

<region>
sample=sustain\eb4_ff_rr3.wav
pitch_keycenter=63
pan=90

<region>
sample=sustain\eb4_ff_rr4.wav
pitch_keycenter=63
pan=-90

//========================
<group>
lokey=65
hikey=67
hivel=60
ampeg_release=0.300
amp_velcurve_60=1

<region>
sample=sustain\gb4_pp_rr1.wav
pitch_keycenter=66
pan=-50

<region>
sample=sustain\gb4_pp_rr2.wav
pitch_keycenter=66
pan=50

<region>
sample=sustain\gb4_pp_rr3.wav
pitch_keycenter=66
pan=90

<region>
sample=sustain\gb4_pp_rr4.wav
pitch_keycenter=66
pan=-90

//========================
<group>
lokey=65
hikey=67
lovel=61
hivel=95
ampeg_release=0.300
amp_velcurve_95=1

<region>
sample=sustain\gb4_p_rr1.wav
pitch_keycenter=66
pan=-50

<region>
sample=sustain\gb4_p_rr2.wav
pitch_keycenter=66
pan=50

<region>
sample=sustain\gb4_p_rr3.wav
pitch_keycenter=66
pan=90

<region>
sample=sustain\gb4_p_rr4.wav
pitch_keycenter=66
pan=-90

//========================
<group>
lokey=65
hikey=67
lovel=96
hivel=120
ampeg_release=0.300
amp_velcurve_120=1

<region>
sample=sustain\gb4_f_rr1.wav
pitch_keycenter=66
pan=-50

<region>
sample=sustain\gb4_f_rr2.wav
pitch_keycenter=66
pan=50

<region>
sample=sustain\gb4_f_rr3.wav
pitch_keycenter=66
pan=90

<region>
sample=sustain\gb4_f_rr4.wav
pitch_keycenter=66
pan=-90

//========================
<group>
lokey=65
hikey=67
lovel=121
ampeg_release=0.300

<region>
sample=sustain\gb4_ff_rr1.wav
pitch_keycenter=66
pan=-50

<region>
sample=sustain\gb4_ff_rr2.wav
pitch_keycenter=66
pan=50

<region>
sample=sustain\gb4_ff_rr3.wav
pitch_keycenter=66
pan=90

<region>
sample=sustain\gb4_ff_rr4.wav
pitch_keycenter=66
pan=-90

//========================
<group>
lokey=68
hikey=70
hivel=60
ampeg_release=0.300
amp_velcurve_60=1

<region>
sample=sustain\a4_pp_rr1.wav
pitch_keycenter=69
pan=-50

<region>
sample=sustain\a4_pp_rr2.wav
pitch_keycenter=69
pan=50

<region>
sample=sustain\a4_pp_rr3.wav
pitch_keycenter=69
pan=90

<region>
sample=sustain\a4_pp_rr4.wav
pitch_keycenter=69
pan=-90

//========================
<group>
lokey=68
hikey=70
lovel=61
hivel=95
ampeg_release=0.300
amp_velcurve_95=1

<region>
sample=sustain\a4_p_rr1.wav
pitch_keycenter=69
pan=-50

<region>
sample=sustain\a4_p_rr2.wav
pitch_keycenter=69
pan=50

<region>
sample=sustain\a4_p_rr3.wav
pitch_keycenter=69
pan=90

<region>
sample=sustain\a4_p_rr4.wav
pitch_keycenter=69
pan=-90

//========================
<group>
lokey=68
hikey=70
lovel=96
hivel=120
ampeg_release=0.300
amp_velcurve_120=1

<region>
sample=sustain\a4_f_rr1.wav
pitch_keycenter=69
pan=-50

<region>
sample=sustain\a4_f_rr2.wav
pitch_keycenter=69
pan=50

<region>
sample=sustain\a4_f_rr3.wav
pitch_keycenter=69
pan=90

<region>
sample=sustain\a4_f_rr4.wav
pitch_keycenter=69
pan=-90

//========================
<group>
lokey=68
hikey=70
lovel=121
ampeg_release=0.300

<region>
sample=sustain\a4_ff_rr1.wav
pitch_keycenter=69
pan=-50

<region>
sample=sustain\a4_ff_rr2.wav
pitch_keycenter=69
pan=50

<region>
sample=sustain\a4_ff_rr3.wav
pitch_keycenter=69
pan=90

<region>
sample=sustain\a4_ff_rr4.wav
pitch_keycenter=69
pan=-90

//========================
<group>
lokey=71
hikey=73
hivel=60
ampeg_release=0.300
amp_velcurve_60=1

<region>
sample=sustain\c5_pp_rr1.wav
pitch_keycenter=72
pan=-50

<region>
sample=sustain\c5_pp_rr2.wav
pitch_keycenter=72
pan=50

<region>
sample=sustain\c5_pp_rr3.wav
pitch_keycenter=72
pan=90

<region>
sample=sustain\c5_pp_rr4.wav
pitch_keycenter=72
pan=-90

//========================
<group>
lokey=71
hikey=73
lovel=61
hivel=95
ampeg_release=0.300
amp_velcurve_95=1

<region>
sample=sustain\c5_p_rr1.wav
pitch_keycenter=72
pan=-50

<region>
sample=sustain\c5_p_rr2.wav
pitch_keycenter=72
pan=50

<region>
sample=sustain\c5_p_rr3.wav
pitch_keycenter=72
pan=90

<region>
sample=sustain\c5_p_rr4.wav
pitch_keycenter=72
pan=-90

//========================
<group>
lokey=71
hikey=73
lovel=96
hivel=120
ampeg_release=0.300
amp_velcurve_120=1

<region>
sample=sustain\c5_f_rr1.wav
pitch_keycenter=72
pan=-50

<region>
sample=sustain\c5_f_rr2.wav
pitch_keycenter=72
pan=50

<region>
sample=sustain\c5_f_rr3.wav
pitch_keycenter=72
pan=90

<region>
sample=sustain\c5_f_rr4.wav
pitch_keycenter=72
pan=-90

//========================
<group>
lokey=71
hikey=73
lovel=121
ampeg_release=0.300

<region>
sample=sustain\c5_ff_rr1.wav
pitch_keycenter=72
pan=-50

<region>
sample=sustain\c5_ff_rr2.wav
pitch_keycenter=72
pan=50

<region>
sample=sustain\c5_ff_rr3.wav
pitch_keycenter=72
pan=90

<region>
sample=sustain\c5_ff_rr4.wav
pitch_keycenter=72
pan=-90

//========================
<group>
lokey=74
hikey=79
hivel=60
ampeg_release=0.300
amp_velcurve_60=1

<region>
sample=sustain\eb5_pp_rr1.wav
pitch_keycenter=75
pan=-50

<region>
sample=sustain\eb5_pp_rr2.wav
pitch_keycenter=75
pan=50

<region>
sample=sustain\eb5_pp_rr3.wav
pitch_keycenter=75
pan=90

<region>
sample=sustain\eb5_pp_rr4.wav
pitch_keycenter=75
pan=-90

//========================
<group>
lokey=74
hikey=79
lovel=61
hivel=95
ampeg_release=0.300
amp_velcurve_95=1

<region>
sample=sustain\eb5_p_rr1.wav
pitch_keycenter=75
pan=-50

<region>
sample=sustain\eb5_p_rr2.wav
pitch_keycenter=75
pan=50

<region>
sample=sustain\eb5_p_rr3.wav
pitch_keycenter=75
pan=90

<region>
sample=sustain\eb5_p_rr4.wav
pitch_keycenter=75
pan=-90

//========================
<group>
lokey=74
hikey=79
lovel=96
hivel=120
ampeg_release=0.300
amp_velcurve_120=1

<region>
sample=sustain\eb5_f_rr1.wav
pitch_keycenter=75
pan=-50

<region>
sample=sustain\eb5_f_rr2.wav
pitch_keycenter=75
pan=50

<region>
sample=sustain\eb5_f_rr3.wav
pitch_keycenter=75
pan=90

<region>
sample=sustain\eb5_f_rr4.wav
pitch_keycenter=75
pan=-90

//========================
<group>
lokey=74
hikey=79
lovel=121
ampeg_release=0.300

<region>
sample=sustain\eb5_ff_rr1.wav
pitch_keycenter=75
pan=-50

<region>
sample=sustain\eb5_ff_rr2.wav
pitch_keycenter=75
pan=50

<region>
sample=sustain\eb5_ff_rr3.wav
pitch_keycenter=75
pan=90

<region>
sample=sustain\eb5_ff_rr4.wav
pitch_keycenter=75
pan=-90
